<svg xmlns="http://www.w3.org/2000/svg" width="600" height="600" viewBox="0 0 600 600"><rect width="100%" height="100%" fill="#DDDDDD"/><path fill="#999999" d="M129.91 294.835h6.64q2.44 0 4.25-.61 1.82-.61 3.02-1.75 1.21-1.14 1.8-2.77.6-1.63.6-3.65 0-1.91-.6-3.46-.59-1.55-1.78-2.64t-3-1.67q-1.82-.57-4.29-.57h-6.64v17.12Zm-8.87-23.99h15.51q4.78 0 8.28 1.12 3.5 1.13 5.78 3.14 2.27 2.01 3.38 4.82 1.1 2.8 1.1 6.13 0 3.47-1.15 6.36-1.16 2.88-3.47 4.96-2.31 2.08-5.79 3.24-3.48 1.15-8.13 1.15h-6.64v16.8h-8.87v-47.72Zm54.55 13.33q3.76 0 6.84 1.23 3.09 1.22 5.28 3.46 2.2 2.24 3.39 5.48 1.18 3.23 1.18 7.22 0 4.03-1.18 7.26-1.19 3.24-3.39 5.52-2.19 2.27-5.28 3.49-3.08 1.22-6.84 1.22-3.8 0-6.9-1.22-3.1-1.22-5.3-3.49-2.19-2.28-3.4-5.52-1.2-3.23-1.2-7.26 0-3.99 1.2-7.22 1.21-3.24 3.4-5.48 2.2-2.24 5.3-3.46 3.1-1.23 6.9-1.23Zm0 28.61q4.22 0 6.25-2.83 2.03-2.84 2.03-8.32t-2.03-8.35q-2.03-2.87-6.25-2.87-4.29 0-6.36 2.89-2.06 2.89-2.06 8.33 0 5.45 2.06 8.3 2.07 2.85 6.36 2.85Zm33.46 5.78h-8.15v-27.72l-2.94-.46q-.96-.2-1.53-.68-.58-.48-.58-1.37v-3.33h5.05v-2.51q0-2.9.87-5.21.88-2.31 2.51-3.93t3.98-2.48q2.34-.85 5.28-.85 2.34 0 4.35.62l-.16 4.1q-.04.46-.27.74-.23.28-.61.43-.38.15-.87.2-.5.04-1.06.04-1.45 0-2.59.32-1.14.31-1.93 1.09-.79.77-1.2 2.04-.42 1.27-.42 3.16v2.24h8.82v5.81h-8.55v27.75Zm13.4-33.86h8.18v33.86h-8.18v-33.86Zm9.3-9.87q0 1.06-.43 1.98-.43.93-1.13 1.62-.71.69-1.67 1.11-.96.41-2.05.41-1.05 0-1.99-.41-.94-.42-1.64-1.11-.69-.69-1.1-1.62-.42-.92-.42-1.98 0-1.08.42-2.04.41-.96 1.1-1.65.7-.69 1.64-1.11.94-.41 1.99-.41 1.09 0 2.05.41.96.42 1.67 1.11.7.69 1.13 1.65.43.96.43 2.04Zm7.3-5.31h8.15v49.04h-8.15v-49.04Zm22.73 28.22h15.38q0-1.59-.44-2.99-.45-1.4-1.34-2.46-.89-1.05-2.26-1.66-1.37-.62-3.19-.62-3.53 0-5.56 2.02-2.03 2.01-2.59 5.71Zm20.79 4.91h-20.95q.2 2.61.92 4.51.73 1.9 1.92 3.13 1.18 1.24 2.82 1.85 1.63.61 3.61.61t3.42-.46q1.43-.46 2.5-1.02 1.08-.56 1.89-1.03.8-.46 1.56-.46 1.03 0 1.52.76l2.34 2.97q-1.35 1.58-3.03 2.66-1.69 1.07-3.52 1.71-1.83.65-3.73.91-1.89.26-3.68.26-3.53 0-6.56-1.17-3.04-1.17-5.28-3.46-2.25-2.3-3.53-5.68-1.29-3.38-1.29-7.84 0-3.46 1.12-6.51 1.12-3.06 3.22-5.32 2.09-2.26 5.11-3.58 3.02-1.32 6.82-1.32 3.2 0 5.91 1.03 2.7 1.02 4.65 2.98 1.95 1.97 3.05 4.82 1.11 2.86 1.11 6.52 0 1.85-.4 2.49-.4.64-1.52.64Zm34.26-31.81v47.72h-8.91v-47.72h8.91Zm17.52 47.72h-8.15v-33.86h4.98q1.59 0 2.08 1.49l.53 2.5q.89-.99 1.86-1.81.98-.83 2.08-1.42 1.11-.59 2.38-.94 1.27-.35 2.79-.35 3.2 0 5.26 1.74 2.06 1.73 3.09 4.6.79-1.68 1.98-2.89 1.18-1.2 2.6-1.96 1.42-.76 3.02-1.12 1.6-.37 3.22-.37 2.8 0 4.98.86 2.18.86 3.67 2.51 1.48 1.65 2.26 4.03.77 2.37.77 5.44v21.55h-8.15v-21.55q0-3.23-1.42-4.87-1.42-1.63-4.16-1.63-1.25 0-2.32.43-1.08.43-1.88 1.24-.81.8-1.27 2.03-.47 1.22-.47 2.8v21.55h-8.18v-21.55q0-3.4-1.37-4.95-1.37-1.55-4.01-1.55-1.78 0-3.32.87-1.53.88-2.85 2.4v24.78Zm65.01-8.75v-5.7q-3.53.16-5.94.61-2.41.44-3.86 1.13-1.45.7-2.08 1.62-.63.93-.63 2.01 0 2.15 1.27 3.07 1.27.93 3.32.93 2.51 0 4.34-.91t3.58-2.76Zm-17.23-17.78-1.45-2.61q5.84-5.34 14.06-5.34 2.97 0 5.31.97 2.35.97 3.96 2.7 1.62 1.74 2.46 4.15.84 2.4.84 5.28v21.38h-3.69q-1.16 0-1.79-.35-.62-.34-.99-1.4l-.72-2.44q-1.29 1.15-2.51 2.03-1.22.87-2.54 1.47-1.32.59-2.82.9-1.5.32-3.32.32-2.14 0-3.96-.58-1.81-.58-3.13-1.73-1.32-1.16-2.05-2.87-.73-1.72-.73-4 0-1.28.43-2.55.43-1.27 1.41-2.43.97-1.15 2.52-2.18 1.55-1.02 3.81-1.78t5.27-1.24q3-.47 6.86-.57v-1.98q0-3.4-1.45-5.04-1.45-1.63-4.19-1.63-1.98 0-3.29.46-1.3.46-2.29 1.04-.99.58-1.8 1.04-.81.46-1.8.46-.86 0-1.45-.44-.59-.45-.96-1.04Zm45.21 8.78q1.52 0 2.64-.42 1.13-.41 1.87-1.13.74-.73 1.12-1.75.38-1.03.38-2.25 0-2.51-1.5-3.97-1.5-1.47-4.51-1.47-3 0-4.5 1.47-1.5 1.46-1.5 3.97 0 1.19.38 2.21.38 1.03 1.12 1.77.74.74 1.88 1.15 1.14.42 2.62.42Zm9.21 19.27q0-.99-.59-1.62-.6-.63-1.62-.97-1.02-.35-2.39-.51-1.37-.17-2.91-.25-1.53-.08-3.16-.15-1.64-.07-3.19-.26-1.35.75-2.19 1.78-.85 1.02-.85 2.37 0 .9.45 1.67.45.78 1.42 1.34t2.52.87q1.55.32 3.8.32 2.28 0 3.93-.35 1.65-.35 2.72-.96 1.07-.61 1.57-1.45.49-.84.49-1.83Zm-1.62-34.22h9.74v3.03q0 1.46-1.75 1.78l-3.04.57q.7 1.74.7 3.82 0 2.51-1.01 4.54-1.01 2.03-2.79 3.45-1.78 1.42-4.21 2.19-2.42.78-5.23.78-.99 0-1.91-.1-.92-.1-1.82-.26-1.58.95-1.58 2.14 0 1.02.94 1.5t2.49.68q1.55.2 3.53.25 1.98.05 4.06.21 2.08.17 4.06.58 1.98.41 3.53 1.3 1.55.89 2.49 2.43.94 1.53.94 3.94 0 2.25-1.1 4.36-1.11 2.11-3.2 3.76-2.1 1.65-5.15 2.66-3.05 1-6.95 1-3.82 0-6.66-.74-2.84-.74-4.72-1.98t-2.81-2.85q-.92-1.62-.92-3.37 0-2.38 1.44-3.98 1.43-1.6 3.94-2.55-1.35-.7-2.15-1.85-.79-1.16-.79-3.04 0-.76.28-1.57.28-.8.83-1.6.54-.79 1.37-1.5.82-.71 1.94-1.27-2.57-1.38-4.04-3.69-1.47-2.31-1.47-5.42 0-2.5 1.01-4.53 1.01-2.03 2.8-3.47 1.8-1.43 4.26-2.19t5.36-.76q2.18 0 4.1.44 1.91.45 3.49 1.31Zm21.32 11.88h15.38q0-1.59-.45-2.99-.44-1.4-1.33-2.46-.89-1.05-2.26-1.66-1.37-.62-3.19-.62-3.53 0-5.56 2.02-2.03 2.01-2.59 5.71Zm20.79 4.91h-20.95q.19 2.61.92 4.51t1.91 3.13q1.19 1.24 2.83 1.85 1.63.61 3.61.61t3.42-.46q1.43-.46 2.5-1.02 1.08-.56 1.88-1.03.81-.46 1.57-.46 1.02 0 1.52.76l2.34 2.97q-1.35 1.58-3.03 2.66-1.69 1.07-3.52 1.71-1.83.65-3.73.91-1.89.26-3.68.26-3.53 0-6.56-1.17-3.04-1.17-5.28-3.46-2.25-2.3-3.53-5.68-1.29-3.38-1.29-7.84 0-3.46 1.12-6.51 1.12-3.06 3.22-5.32 2.09-2.26 5.11-3.58 3.02-1.32 6.82-1.32 3.2 0 5.9 1.03 2.71 1.02 4.66 2.98 1.94 1.97 3.05 4.82 1.11 2.86 1.11 6.52 0 1.85-.4 2.49-.4.64-1.52.64Z"/></svg>